<svg version="1.1" id="Layer_1" xmlns="http://www.w3.org/2000/svg" x="0" y="0" viewBox="0 0 323.4 81.4" style="enable-background:new 0 0 323.4 81.4" xml:space="preserve"><style>.st0{fill:#fff}</style><path class="st0" d="m76.6 44.8 1-2.3c1.3 1 3.3 1.8 5.3 1.8 2.5 0 3.6-.9 3.6-2.1 0-3.5-9.5-1.2-9.5-7.2 0-2.6 2.1-4.8 6.5-4.8 1.9 0 3.9.5 5.3 1.4l-1 2.4c-1.4-.8-3-1.3-4.4-1.3-2.5 0-3.5 1-3.5 2.2 0 3.4 9.5 1.2 9.5 7.1 0 2.6-2.1 4.8-6.5 4.8-2.5 0-5-.8-6.3-2zm30-14.3v16.1h-3v-6.9h-8.3v6.9h-3V30.5h3v6.6h8.3v-6.6h3zm4.3 0h3v16.1h-3V30.5zm17.9 16-3.3-4.7h-4.2v4.7h-3v-16h6.6c4.2 0 6.8 2.2 6.8 5.7 0 2.4-1.2 4.2-3.4 5.1l3.7 5.3h-3.2zM124.7 33h-3.5v6.4h3.5c2.6 0 4-1.2 4-3.2s-1.4-3.2-4-3.2zm10.3-2.5h3v16.1h-3V30.5zm21.6 0v16.1h-2.5l-8.9-10.9v10.9h-3V30.5h2.5l8.9 10.9V30.5h3zm16.2 9.3-2.5 2.6v4.1h-3v-16h3v8.2l7.9-8.2h3.4l-6.7 7.2 7.2 8.9h-3.5l-5.8-6.8z"/><path class="st0" d="M193.7 42.8h-8l-1.6 3.7H181l7.2-16.1h2.9l7.3 16.1h-3.1l-1.6-3.7zm-1-2.3-3-7-3 7h6zM213 44v2.5h-13.7v-2l9.5-11.5h-9.3v-2.5h13.2v2L203.2 44h9.8zm14.8 0v2.5h-12v-16h11.7V33h-8.7v4.2h7.8v2.5h-7.8V44h9zm13.8 2.5-3.3-4.7h-4.2v4.7h-3v-16h6.6c4.2 0 6.8 2.2 6.8 5.7 0 2.4-1.2 4.2-3.4 5.1l3.7 5.3h-3.2zm-4-13.5h-3.5v6.4h3.5c2.6 0 4-1.2 4-3.2s-1.4-3.2-4-3.2zm9.1 5.5c0-4.8 3.7-8.3 8.7-8.3 5 0 8.7 3.5 8.7 8.3s-3.7 8.3-8.7 8.3c-5 0-8.7-3.6-8.7-8.3zm14.3 0c0-3.3-2.4-5.6-5.6-5.6-3.2 0-5.6 2.4-5.6 5.6s2.4 5.6 5.6 5.6c3.2 0 5.6-2.3 5.6-5.6zm5 0c0-4.8 3.7-8.3 8.7-8.3 5 0 8.7 3.5 8.7 8.3s-3.7 8.3-8.7 8.3c-5 0-8.7-3.6-8.7-8.3zm14.3 0c0-3.3-2.4-5.6-5.6-5.6-3.2 0-5.6 2.4-5.6 5.6s2.4 5.6 5.6 5.6c3.2 0 5.6-2.3 5.6-5.6zm20.5-8v16.1h-2.5l-8.9-10.9v10.9h-3V30.5h2.5l8.9 10.9V30.5h3zm4.3 0h3v16.1h-3V30.5zM21.7 18.2c-3.1 1.2-4.6 3.7-4.6 7.7v8.3c0 2.8-1 4.1-3.1 4.1h-.3v4.1h.3c2.1 0 3.1 1.4 3.1 4.1v8.3c0 4.9 2.3 7.7 6.9 8.3V59c-2.3-.2-3.4-1.6-3.4-4.1v-8.3c0-2.4-.8-4.5-2.3-6.2 1.6-1.7 2.3-3.8 2.3-6.2v-8.3c0-2 .7-3.3 2.2-3.8l1.2-.3h.1c3.2-.7 5.2-.6 5.2-.6s2.1-3.3 5.1-5.5c-7.1 0-11.9 2.2-12.7 2.5z"/><path class="st0" d="M68.1 30.6c.4-.1.8-.1 1.4-.3-.3.4-.3.8-.5.9-.6.4-1.4.9-2.1 1.3-5 3-10.1 5.9-15.2 8.9-.4.3-.8.5-1.1.8.4 4.3-1.1 8.1-3.4 11.6-3.7 5.7-8.6 9.9-14.4 13.2-1.5.8-3 1.3-4.7 1.8-.8.3-1.6.1-2.4.1-1.1 0-2-.5-2.4-1.5-.3-.6-.8-.9-1.4-1.1-1.3-.4-1.8-1.1-1.3-2.4.4-1.1 1-2.3 1.8-3.4 1.5-2.1 3.5-3.9 5.4-5.7 3.5-2.9 7.4-5.4 11.2-7.9 1.1-.6 2.3-1.4 3.3-2 .5-.3.9-.6.9-1.1 0-.9.1-1.8 0-2.6 0-1.5-.6-2.6-2.1-3.3-.8-.4-1.6-.9-2.3-1.4s-1.3-1.1-1.8-1.8c-.4-.6-1-1.1-1.6-1.5-1.3-.8-2.4-1.5-3.5-2.4-.8-.5-1.4-1.1-1.9-1.8-1-1.3-1.4-2.9-.8-4.4.4-1.1.9-2.3 1.6-3.1 4.4-5.5 10.1-8.6 17.1-8.8 1.8-.1 3.4.3 5 1.1.6.4 1.3.8 1.4 1.6.1.3.1.5.3.6 1 1.8.6 3.5-.3 5.2-.8 1.3-1.6 2.5-2.5 3.8-.5.6-1.1 1-1.9 1.5-.4.3-.8.1-1.1-.4-.3-.4-.6-.6-1.1-1 .1-1 .3-1.9.4-3-.4.1-.6.1-.8.3-2.1 1.5-4.2 3.1-5.9 5.2-1.4 1.8-1.4 2.1.4 3.7 1.3 1 2.5 2 3.8 3 1.9 1.5 3.5 3.3 4.3 5.7 0 .1.1.3.3.4l2.4-1.5c3.8-2 7.4-4.2 11.2-6.2 1.3-1 2.8-1.6 4.3-2.1zM41.8 47.7c-.5.4-.9.5-1.1.8-2.5 1.9-5 3.7-7.4 5.5-2 1.6-3.8 3.4-5.5 5.2-1 1.1-1.8 2.4-2.5 3.7-.5.6-.8 1.4-.6 2.4.6-.3 1.3-.5 1.8-.8 4.2-2.1 7.7-5 10.7-8.7 1.9-2.1 3.4-4.5 4.5-7.1 0-.3 0-.5.1-1z"/><path class="st0" d="M55.5 21.1c-.2.3-.3.5-.5.8 1.9.4 2.8 1.7 2.8 4v8.3c0 .7.1 1.3.2 2 1.1-.6 2.1-1.2 3.2-1.8v-8.5c0-4.1-1.6-6.7-4.9-7.8 0 1-.3 2-.8 3zm6 15.1c-1 .6-2 1.1-2.9 1.7.4.9.9 1.7 1.6 2.5-1.5 1.7-2.3 3.8-2.3 6.2v8.3c0 2-.7 3.2-2.1 3.8-1 .3-4.3 1-10.2-.9-.8 1.5-4.7 5.6-4.7 5.6s8.9.8 14.3-.4c4.1-.8 6.1-3.6 6.1-8.2v-8.3c0-2.8 1-4.1 3.1-4.1h.3v-4.1h-.3c-1.5.1-2.5-.7-2.9-2.1z"/></svg>